<svg version="1.1" width="423.33333mm" height="211.66667mm" viewBox="0 0 423.33333 211.66667" xmlns="http://www.w3.org/2000/svg" xmlns:xlink="http://www.w3.org/1999/xlink"><path d="M85.613106 87.991907Q84.631884 104.25888 85.663756 120.52023L85.858602 121.94454L85.97129 122.64442L86.548745 125.75675L86.707037 126.50184L87.391879 129.3576L87.604671 130.146L88.391394 132.76274L88.668326 133.59052L89.552563 135.98435L89.903639 136.84507L90.882155 139.03055L91.228922 139.74805L91.810603 140.86649L92.239022 141.62849L93.289065 143.36066L93.945529 144.34156L95.070575 145.86881L95.868993 146.8485L97.070135 148.18265L98.019164 149.13109L99.297981 150.28051L100.39785 151.16304L101.75594 152.13286L102.35975 152.54841L157.98877 190.5L329.97654 171.34663Q338.32606 159.42562 333.12626 144.19306L323.8593 124.84775L336.8474 94.390372L337.46616 92.758724L337.95411 90.790775L338.19849 88.800494L338.19518 86.821518L337.94423 84.88729L337.44989 83.0305L336.72049 81.282527L335.90652 79.909776L333.48734 76.249957L332.54971 74.972815L331.25642 73.660812L329.79187 72.554123L270.52574 32.121198L268.91468 31.238525L267.18435 30.594785L265.36398 30.200857L263.48433 30.063398L261.85658 30.168622L238.91978 32.722973L237.42594 32.952019L235.697 33.436748L234.01393 34.127738L233.1189 34.620073L232.22388 34.327087L230.54081 34.010967L228.81187 33.911321L227.31803 34.014999L204.38123 36.569349L202.75464 36.826421L200.8763 37.381893L199.0571 38.180299L198.72272 38.379045L196.85359 37.903107L195.67853 37.660509L193.64007 37.335366L192.50417 37.203579L190.32232 37.043679L189.24187 37.00722L186.9058 37.019808L185.89177 37.061964L183.38895 37.256155L182.88893 37.303794L182.76457 37.31784L182.4352 37.360709L162.13655 23.512428L160.4688 22.517508L158.66061 21.78657L156.74615 21.333434L154.76163 21.166667L153.04013 21.272209L132.50369 23.559243L130.7822 23.837129L128.79768 24.445908L126.88322 25.32545L125.07503 26.459126L123.40728 27.825502L122.13123 29.168698L119.46416 32.230811L118.30565 33.682783L117.16686 35.538646L116.2676 37.513444L115.62488 39.569839L115.25086 41.668955L115.16774 43.462979V45.45091L114.54721 45.638007L112.98233 46.141347L112.13775 46.430371L111.3109 46.786765L109.7843 47.477862L108.97732 47.860563L108.19525 48.30584L106.70915 49.186548L105.96455 49.644573L105.25016 50.157831L103.80581 51.231521L103.14091 51.741362L102.50919 52.297694L101.10627 53.570412L99.986888 54.682104L98.623596 56.163635L97.680805 57.277241L96.354458 58.981722L95.576278 60.063234L94.284074 62.009265L93.651945 63.035226L92.391662 65.245567L91.980885 66.008895L91.499573 66.958419L91.097746 67.806464L90.140723 69.974049L89.703379 71.062051L88.831626 73.461334L88.49983 74.470142L87.717197 77.123052L87.472171 78.048648L86.78415 80.97951L86.608909 81.822417L86.022655 85.057568L85.902561 85.821288z" fill="url(#d0)"/><path d="M99.298674 102.88248L99.369913 107.15218L99.581227 111.15169L99.922963 114.83479L100.38641 118.22251L100.96386 121.33484L101.6487 124.19059L102.43543 126.80733L103.31966 129.20116L104.29818 131.38665L104.87986 132.50508L105.9299 134.23725L107.05495 135.76451L108.25609 137.09865L109.53491 138.24807L110.89299 139.21789L112.33158 140.01048L113.85146 140.62604L115.4533 141.06332L117.13819 141.31998L118.90853 141.39266L120.76859 141.27665L120.80397 141.27267L122.46108 140.99321L124.04495 140.5406L125.55727 139.91485L126.99666 139.11552L128.36005 138.14218L129.64416 136.99392L130.84665 135.66809L131.96657 134.15888L132.42998 133.42721L132.7704 132.78462V135.51592L135.43747 137.984L153.04013 136.02368L155.7072 132.96157V111.00821L155.84204 111.93437L156.43359 114.93434L157.14335 117.73109L157.7653 119.68496L158.58357 121.74454L159.52085 123.64848L160.57631 125.40356L161.74998 127.01488L163.04261 128.48601L164.45566 129.81916L165.9913 131.01539L166.62329 131.43985L168.19118 132.32723L169.89823 133.07189L171.75094 133.6709L173.75795 134.12016L175.93016 134.41413L178.28063 134.54554L180.82436 134.50519L183.57808 134.28189L184.94178 134.11133L187.5627 133.66819L189.95988 133.10669L192.15336 132.43304L194.16108 131.65148L195.9985 130.76434L197.67817 129.77239L198.0087 129.55399L199.72331 128.30755L201.28047 126.9765L202.01171 126.23965L201.83717 126.64144L204.24787 130.32094L227.18467 127.76659L229.79695 125.26817L233.1189 108.17L236.44085 124.52828L239.05313 126.44487L261.98994 123.89052L264.40232 119.67756L248.39857 86.268828L264.27576 49.036468L261.85658 45.376649L238.91978 47.930999L236.31035 50.414947L233.1189 66.426369L229.92746 51.125775L227.31803 49.223025L204.38123 51.777376L201.96044 55.972593L217.83923 89.805877L209.2597 109.55532L209.30388 109.00553L209.40323 106.45773L209.34006 103.96667L209.11561 101.52853L208.7301 99.13996L206.35968 97.192802L192.78871 97.406918L205.55155 95.471727L208.0936 92.7762L208.37349 90.216857L208.65981 86.490889L208.78009 83.011165L208.74394 79.762042L208.55989 76.7287L208.23533 73.897235L207.77646 71.254771L207.1883 68.789576L206.47471 66.491174L205.63845 64.350443L204.68126 62.359676L203.8538 60.931599L202.76886 59.382032L201.57276 57.987021L200.26462 56.743419L198.84309 55.649758L197.30625 54.705911L195.65137 53.912826L193.87458 53.272409L191.97051 52.787574L189.93205 52.46243L187.7502 52.302531L185.41413 52.315119L182.91131 52.509309L182.78696 52.523355L180.34861 52.882716L178.07661 53.37773L175.95765 54.003182L173.98019 54.755541L172.13475 55.632768L170.414 56.634026L168.81282 57.759365L168.13586 58.29699L166.52097 59.725817L165.01954 61.273714L163.63027 62.943033L162.3527 64.736966L161.18711 66.659742L160.13442 68.716828L160.02185 68.959035L158.94916 71.473943L158.00256 74.100195L157.18405 76.843648L156.49649 79.710835L155.94352 82.708948L155.7072 84.418781V38.948313L153.04013 36.480235L132.50369 38.76727L129.83662 41.829383V61.185053L129.90688 64.066363L129.23787 63.267643L128.1117 62.218493L126.89262 61.352782L125.58062 60.671343L124.17735 60.177124L122.68506 59.873747L121.10489 59.764899L119.43505 59.854835L119.0642 59.901093L117.46308 60.217822L115.8982 60.721162L114.37159 61.412258L112.88549 62.292966L111.44114 63.366656L110.03822 64.639375L108.67493 66.120905L107.34858 67.825386L106.05638 69.771416L104.7961 71.981758L104.31478 72.931282L103.35776 75.098868L102.48601 77.49815L101.70337 80.15106L101.01535 83.081923L100.4291 86.317074L99.953371 89.884549L99.598429 93.813859L99.375904 98.135824zM125.56931 101.20115L125.58949 98.201467L125.71605 93.677956L125.93219 90.186926L126.20772 87.572708L126.51186 85.699313L126.51643 85.676449L126.84121 84.32016L127.1469 83.418927L127.19286 83.322097L127.52796 83.89757L127.9747 84.973387L128.45482 86.572003L128.82252 88.185514L129.23675 90.64348L129.55673 93.525557L129.76328 96.872197L129.83662 100.72592V103.62927L129.78299 106.19579L129.59183 109.06445L129.26604 111.85444L129.00853 113.42966L128.6045 115.27044L128.16313 116.75911L127.70501 117.93418L127.54952 118.26171L127.2916 118.70432L127.11125 118.34858L126.78718 117.38458L126.46187 115.8964L126.14473 113.70054L125.84552 110.4625L125.64354 106.33849zM180.75501 99.231553L186.86041 98.30581L184.66249 100.88216L184.81819 102.53597L184.93704 105.05006L184.91367 107.54901L184.8437 108.7274L184.65789 110.27094L184.40317 111.49804L184.10758 112.44398L184.02242 112.64642L183.90525 112.85293L183.8538 112.91512L183.84062 112.92534L183.78353 112.94947L183.57808 112.99065L183.50061 112.99257L183.45295 112.9818L183.36176 112.93293L183.17343 112.76658L182.88366 112.38277L182.52139 111.68999L182.12661 110.61093L181.88175 109.70779L181.48992 107.71408L181.13101 104.94163L180.83831 101.25821zM180.90242 83.703822L180.95806 82.606577L181.2063 80.092516L181.51972 78.095408L181.87168 76.555137L182.09981 75.832385L182.36608 75.218664L182.57858 74.869365L182.71104 74.714487L182.76805 74.668568L182.80352 74.652059L182.91131 74.630075L182.93169 74.628245L182.93962 74.627959L182.94927 74.635647L183.07282 74.778203L183.28893 75.162352L183.55141 75.886036L183.62052 76.140644L183.8748 77.465689L184.07379 79.431729L184.16834 82.14599L184.15237 83.186382z" fill="#fff"/><defs><linearGradient id="d0" gradientUnits="userSpaceOnUse" x1="211.66667" y1="21.166667" x2="211.66667" y2="190.5"><stop offset="0" stop-color="#2d1004"/><stop offset=".5" stop-color="#c1272d"/><stop offset="1" stop-color="#ff8c5a"/></linearGradient></defs></svg>